<?xml version="1.0" encoding="UTF-8"?>
<svg width="60px" height="60px" viewBox="0 0 60 60" version="1.1" xmlns="http://www.w3.org/2000/svg" xmlns:xlink="http://www.w3.org/1999/xlink">
    <title>marksix-big23</title>
    <defs>
        <circle id="path-1" cx="25.7678571" cy="25.7678571" r="25.7678571"></circle>
        <filter x="-11.6%" y="-11.6%" width="123.3%" height="123.3%" filterUnits="objectBoundingBox" id="filter-2">
            <feOffset dx="0" dy="0" in="SourceAlpha" result="shadowOffsetOuter1"></feOffset>
            <feGaussianBlur stdDeviation="2" in="shadowOffsetOuter1" result="shadowBlurOuter1"></feGaussianBlur>
            <feColorMatrix values="0 0 0 0 0   0 0 0 0 0   0 0 0 0 0  0 0 0 0.5 0" type="matrix" in="shadowBlurOuter1"></feColorMatrix>
        </filter>
        <linearGradient x1="36.529559%" y1="65.8704271%" x2="73.9125845%" y2="-7.92687218%" id="linearGradient-3">
            <stop stop-color="#E04242" offset="0%"></stop>
            <stop stop-color="#96261C" offset="100%"></stop>
        </linearGradient>
        <linearGradient x1="15.1402379%" y1="59.3007393%" x2="72.6368947%" y2="5.0539727%" id="linearGradient-4">
            <stop stop-color="#FFFFFF" offset="0%"></stop>
            <stop stop-color="#EAEAEA" offset="100%"></stop>
        </linearGradient>
        <linearGradient x1="55.8285348%" y1="50%" x2="85.1741293%" y2="79.2853393%" id="linearGradient-5">
            <stop stop-color="#000000" stop-opacity="0" offset="0%"></stop>
            <stop stop-color="#000000" stop-opacity="0.421711101" offset="100%"></stop>
        </linearGradient>
    </defs>
    <g id="4.0-Mark-Six-Ball" stroke="none" stroke-width="1" fill="none" fill-rule="evenodd">
        <g id="MarkSix-60x60_new-Copy" transform="translate(-238, -204)">
            <g id="Group-Copy-5" transform="translate(242, 208)">
                <g id="Group-10-Copy-2" transform="translate(25.7679, 25.7679) scale(1, -1) translate(-25.7679, -25.7679)">
                    <g id="Oval">
                        <use fill="black" fill-opacity="1" filter="url(#filter-2)" xlink:href="#path-1"></use>
                        <use fill="#FFFFFF" fill-rule="evenodd" xlink:href="#path-1"></use>
                    </g>
                    <path d="M25.7678571,0 C29.059677,0 32.2073276,0.617262099 35.1013778,1.74235512 C35.960253,4.53984461 37.8582577,7.73543328 40.5936796,10.6688142 C43.6418656,13.9375935 47.0873922,16.1917552 50.0368595,17.0878971 C51.0072513,19.799586 51.5357143,22.722007 51.5357143,25.7678571 C51.5357143,31.3445408 49.7641803,36.5074604 46.7531726,40.7245559 C44.2651,41.4732295 41.5181117,42.875239 38.8879219,44.8572292 C36.6081025,46.5751963 34.7229676,48.4976271 33.3458294,50.4023789 C30.949673,51.1395507 28.4050295,51.5357143 25.7678571,51.5357143 C21.3334169,51.5357143 17.1606011,50.4155671 13.5169254,48.4427884 C12.4928972,46.2772299 10.9413882,43.9941345 8.94288313,41.8510001 C6.85896725,39.616274 4.58933919,37.8557677 2.41946999,36.6792099 C0.866788425,33.367082 0,29.6686942 0,25.7678571 C0,21.9849257 0.815181712,18.3923901 2.27946477,15.1563308 C5.55958586,14.8114283 9.86817042,12.3339912 13.5857403,8.34738562 C15.8044319,5.9681301 17.4722054,3.4163739 18.4809907,1.04503366 C20.7910052,0.364918642 23.2368155,0 25.7678571,0 Z" id="Combined-Shape" fill="url(#linearGradient-3)"></path>
                    <ellipse id="Oval" fill="url(#linearGradient-4)" transform="translate(26.1578, 27.8832) rotate(7) translate(-26.1578, -27.8832)" cx="26.1578493" cy="27.8832295" rx="19.0357143" ry="16.6833333"></ellipse>
                </g>
                <path d="M46.7295785,10 C49.9727984,14.3375634 51.8933604,19.7216023 51.8933604,25.5542125 C51.8933604,39.913616 40.2527639,51.5542125 25.8933604,51.5542125 C15.1810906,51.5542125 5.98192409,45.075847 2,35.8232552 Z" id="Combined-Shape" fill="url(#linearGradient-5)"></path>
                <g id="23" transform="translate(13.834, 15.412)" fill="#000000" fill-rule="nonzero">
                    <path d="M0.154,16.588 L11.066,16.588 L11.066,13.86 L7.524,13.86 C6.776,13.86 5.698,13.948 4.884,14.036 C7.854,11.132 10.296,7.964 10.296,5.016 C10.296,1.98 8.25,0 5.17,0 C2.948,0 1.496,0.88 0,2.464 L1.76,4.224 C2.574,3.322 3.564,2.552 4.752,2.552 C6.292,2.552 7.194,3.542 7.194,5.192 C7.194,7.7 4.576,10.758 0.154,14.718 L0.154,16.588 Z" id="Path"></path>
                    <path d="M18.194,16.896 C21.296,16.896 23.914,15.158 23.914,12.166 C23.914,10.032 22.506,8.668 20.658,8.162 L20.658,8.052 C22.396,7.37 23.386,6.094 23.386,4.334 C23.386,1.54 21.252,0 18.106,0 C16.192,0 14.63,0.77 13.222,2.002 L14.872,3.982 C15.84,3.102 16.786,2.552 17.952,2.53 C19.338,2.552 20.13,3.3 20.13,4.576 C20.13,6.028 19.162,7.062 16.17,7.062 L16.17,9.394 C19.712,9.394 20.658,10.384 20.658,11.99 C20.658,13.442 19.536,14.256 17.886,14.256 C16.412,14.256 15.224,13.53 14.256,12.584 L12.738,14.63 C13.882,15.928 15.62,16.896 18.194,16.896 Z" id="Path"></path>
                </g>
            </g>
        </g>
    </g>
</svg>