<?xml version="1.0" encoding="UTF-8"?>
<svg width="60px" height="60px" viewBox="0 0 60 60" version="1.1" xmlns="http://www.w3.org/2000/svg" xmlns:xlink="http://www.w3.org/1999/xlink">
    <title>marksix-big33</title>
    <defs>
        <circle id="path-1" cx="25.7678571" cy="25.7678571" r="25.7678571"></circle>
        <filter x="-11.6%" y="-11.6%" width="123.3%" height="123.3%" filterUnits="objectBoundingBox" id="filter-2">
            <feOffset dx="0" dy="0" in="SourceAlpha" result="shadowOffsetOuter1"></feOffset>
            <feGaussianBlur stdDeviation="2" in="shadowOffsetOuter1" result="shadowBlurOuter1"></feGaussianBlur>
            <feColorMatrix values="0 0 0 0 0   0 0 0 0 0   0 0 0 0 0  0 0 0 0.5 0" type="matrix" in="shadowBlurOuter1"></feColorMatrix>
        </filter>
        <linearGradient x1="36.0923423%" y1="66.7335304%" x2="73.9125845%" y2="-7.92687218%" id="linearGradient-3">
            <stop stop-color="#78AB53" offset="0%"></stop>
            <stop stop-color="#356015" offset="100%"></stop>
        </linearGradient>
        <linearGradient x1="15.1402379%" y1="59.3007393%" x2="72.6368947%" y2="5.0539727%" id="linearGradient-4">
            <stop stop-color="#FFFFFF" offset="0%"></stop>
            <stop stop-color="#EAEAEA" offset="100%"></stop>
        </linearGradient>
        <linearGradient x1="55.8285348%" y1="50%" x2="85.1741293%" y2="79.2853393%" id="linearGradient-5">
            <stop stop-color="#000000" stop-opacity="0" offset="0%"></stop>
            <stop stop-color="#000000" stop-opacity="0.421711101" offset="100%"></stop>
        </linearGradient>
    </defs>
    <g id="4.0-Mark-Six-Ball" stroke="none" stroke-width="1" fill="none" fill-rule="evenodd">
        <g id="MarkSix-60x60_new-Copy" transform="translate(-238, -272)">
            <g id="MarkSix_green-Copy-5" transform="translate(242, 276)">
                <g id="Group-Copy-7">
                    <g id="Group-10-Copy-2" transform="translate(25.7679, 25.7679) scale(1, -1) translate(-25.7679, -25.7679)">
                        <g id="Oval">
                            <use fill="black" fill-opacity="1" filter="url(#filter-2)" xlink:href="#path-1"></use>
                            <use fill="#FFFFFF" fill-rule="evenodd" xlink:href="#path-1"></use>
                        </g>
                        <path d="M25.7678571,0 C29.059677,0 32.2073276,0.617262099 35.1013778,1.74235512 C35.960253,4.53984461 37.8582577,7.73543328 40.5936796,10.6688142 C43.6418656,13.9375935 47.0873922,16.1917552 50.0368595,17.0878971 C51.0072513,19.799586 51.5357143,22.722007 51.5357143,25.7678571 C51.5357143,31.3445408 49.7641803,36.5074604 46.7531726,40.7245559 C44.2651,41.4732295 41.5181117,42.875239 38.8879219,44.8572292 C36.6081025,46.5751963 34.7229676,48.4976271 33.3458294,50.4023789 C30.949673,51.1395507 28.4050295,51.5357143 25.7678571,51.5357143 C21.3334169,51.5357143 17.1606011,50.4155671 13.5169254,48.4427884 C12.4928972,46.2772299 10.9413882,43.9941345 8.94288313,41.8510001 C6.85896725,39.616274 4.58933919,37.8557677 2.41946999,36.6792099 C0.866788425,33.367082 0,29.6686942 0,25.7678571 C0,21.9849257 0.815181712,18.3923901 2.27946477,15.1563308 C5.55958586,14.8114283 9.86817042,12.3339912 13.5857403,8.34738562 C15.8044319,5.9681301 17.4722054,3.4163739 18.4809907,1.04503366 C20.7910052,0.364918642 23.2368155,0 25.7678571,0 Z" id="Combined-Shape" fill="url(#linearGradient-3)"></path>
                        <ellipse id="Oval" fill="url(#linearGradient-4)" transform="translate(26.1578, 27.8832) rotate(7) translate(-26.1578, -27.8832)" cx="26.1578493" cy="27.8832295" rx="19.0357143" ry="16.6833333"></ellipse>
                    </g>
                    <path d="M46.7295785,10 C49.9727984,14.3375634 51.8933604,19.7216023 51.8933604,25.5542125 C51.8933604,39.913616 40.2527639,51.5542125 25.8933604,51.5542125 C15.1810906,51.5542125 5.98192409,45.075847 2,35.8232552 Z" id="Combined-Shape" fill="url(#linearGradient-5)"></path>
                </g>
                <g id="33" transform="translate(13.614, 15.412)" fill="#000000" fill-rule="nonzero">
                    <path d="M5.456,16.896 C8.558,16.896 11.176,15.158 11.176,12.166 C11.176,10.032 9.768,8.668 7.92,8.162 L7.92,8.052 C9.658,7.37 10.648,6.094 10.648,4.334 C10.648,1.54 8.514,0 5.368,0 C3.454,0 1.892,0.77 0.484,2.002 L2.134,3.982 C3.102,3.102 4.048,2.552 5.214,2.53 C6.6,2.552 7.392,3.3 7.392,4.576 C7.392,6.028 6.424,7.062 3.432,7.062 L3.432,9.394 C6.974,9.394 7.92,10.384 7.92,11.99 C7.92,13.442 6.798,14.256 5.148,14.256 C3.674,14.256 2.486,13.53 1.518,12.584 L0,14.63 C1.144,15.928 2.882,16.896 5.456,16.896 Z" id="Path"></path>
                    <path d="M18.414,16.896 C21.516,16.896 24.134,15.158 24.134,12.166 C24.134,10.032 22.726,8.668 20.878,8.162 L20.878,8.052 C22.616,7.37 23.606,6.094 23.606,4.334 C23.606,1.54 21.472,0 18.326,0 C16.412,0 14.85,0.77 13.442,2.002 L15.092,3.982 C16.06,3.102 17.006,2.552 18.172,2.53 C19.558,2.552 20.35,3.3 20.35,4.576 C20.35,6.028 19.382,7.062 16.39,7.062 L16.39,9.394 C19.932,9.394 20.878,10.384 20.878,11.99 C20.878,13.442 19.756,14.256 18.106,14.256 C16.632,14.256 15.444,13.53 14.476,12.584 L12.958,14.63 C14.102,15.928 15.84,16.896 18.414,16.896 Z" id="Path"></path>
                </g>
            </g>
        </g>
    </g>
</svg>